<svg xmlns="http://www.w3.org/2000/svg" viewBox="0 -0.5 5 5" shape-rendering="crispEdges">
<metadata>Made with Pixels to Svg https://codepen.io/shshaw/pen/XbxvNj</metadata>
<path stroke="#a4285e" d="M0 0h1M2 2h1" />
<path stroke="#ed9a64" d="M2 0h1" />
<path stroke="#ac2455" d="M4 0h1" />
<path stroke="#a12961" d="M0 1h1" />
<path stroke="#6a083a" d="M1 1h1M4 4h1" />
<path stroke="#e48a6c" d="M2 1h1" />
<path stroke="#710737" d="M3 1h1" />
<path stroke="#aa2657" d="M4 1h1" />
<path stroke="#9a2963" d="M0 2h1" />
<path stroke="#a22961" d="M1 2h1" />
<path stroke="#a5285b" d="M3 2h1" />
<path stroke="#a72859" d="M4 2h1" />
<path stroke="#942a65" d="M0 3h1" />
<path stroke="#dc3e87" d="M1 3h1" />
<path stroke="#1d1159" d="M2 3h1M3 4h1" />
<path stroke="#dd3d83" d="M3 3h1" />
<path stroke="#a5285c" d="M4 3h1" />
<path stroke="#460942" d="M0 4h1" />
<path stroke="#1a125e" d="M1 4h1" />
<path stroke="#1c115b" d="M2 4h1" />
</svg>