<svg xmlns="http://www.w3.org/2000/svg" viewBox="0 -0.5 5 9" shape-rendering="crispEdges">
<metadata>Made with Pixels to Svg https://codepen.io/shshaw/pen/XbxvNj</metadata>
<path stroke="#df84a9" d="M2 0h1" />
<path stroke="#de85a9" d="M3 0h1" />
<path stroke="#ea988d" d="M4 0h1" />
<path stroke="#c53ea7" d="M1 1h1" />
<path stroke="#e082ac" d="M2 1h1" />
<path stroke="#c33ea6" d="M3 1h1" />
<path stroke="#df85ac" d="M4 1h1" />
<path stroke="#c840aa" d="M1 2h1" />
<path stroke="#933ca7" d="M2 2h1" />
<path stroke="#e284b0" d="M3 2h1" />
<path stroke="#a392ff" d="M4 2h1" />
<path stroke="#cb43b0" d="M0 3h1" />
<path stroke="#cb42b0" d="M1 3h1" />
<path stroke="#9053d7" d="M2 3h1" />
<path stroke="#978fff" d="M3 3h1" />
<path stroke="#cf46b5" d="M0 4h1" />
<path stroke="#8240af" d="M1 4h1" />
<path stroke="#8c8bff" d="M2 4h1" />
<path stroke="#d046b9" d="M0 5h1" />
<path stroke="#7c4cd0" d="M1 5h1" />
<path stroke="#8c8aff" d="M2 5h1" />
<path stroke="#9787ff" d="M0 6h1" />
<path stroke="#9488ff" d="M1 6h1" />
<path stroke="#6449cb" d="M0 7h1" />
<path stroke="#5848c9" d="M0 8h1" />
</svg>